# xmcd
#
# Track frame offsets:
#  150
#  12502
#  26612
#  40517
#  69987
#  82835
#  100742
#  118685
#  162585
#  176495
#  190430
#  206350
#  220080
#  231748
#  244020
#  261908
#  276875
#  293568
#  306828
#  323080
#
# Disc length: 4401 seconds
#
# Revision: 1
# Processed by: cddbd v1.5.2PL0 Copyright (c) Steve Scherf et al.
# Submitted via: Collectorz.com_Music_Collector 6.9
#
DISCID=19112f14
DTITLE=Focus - In And Out Of Focus and Mother Focus
DYEAR=1970
DGENRE=Progressive Rock
TTITLE0=Focus...(Vocal)
TTITLE1=Black Beauty
TTITLE2=Sugar Island
TTITLE3=Anonymus
TTITLE4=House Of The King
TTITLE5=Happy Nightmare (Mescaline)
TTITLE6=Why Dream
TTITLE7=Focus (Instrumental)
TTITLE8=Mother Focus
TTITLE9=I Need A Bathroom
TTITLE10=Bennie Helder
TTITLE11=Soft Vanilla
TTITLE12=Hard Vanilla
TTITLE13=Tropic Bird
TTITLE14=Focus IV
TTITLE15=Someone's Crying...What!
TTITLE16=All Together...Oh That!
TTITLE17=No Hang Ups
TTITLE18=My Sweetheart
TTITLE19=Father Bach
EXTD=
EXTT0=
EXTT1=
EXTT2=
EXTT3=
EXTT4=
EXTT5=
EXTT6=
EXTT7=
EXTT8=
EXTT9=
EXTT10=
EXTT11=
EXTT12=
EXTT13=
EXTT14=
EXTT15=
EXTT16=
EXTT17=
EXTT18=
EXTT19=
PLAYORDER=
